<svg width="73" height="75" viewBox="0 0 73 75" fill="none" xmlns="http://www.w3.org/2000/svg">
<path d="M45.2819 71.4785C43.356 72.4355 41.5875 73.5806 39.6029 74.3027C37.3286 75.1304 35.0819 75.1173 32.8192 74.2581C31.1233 73.6141 29.5388 72.7459 27.9647 71.868C25.7175 70.6149 23.2719 70.1454 20.7684 69.8503C19.0943 69.653 17.4495 69.3359 15.8787 68.7035C13.6181 67.7931 12.2201 66.0091 11.1085 63.9489C10.6687 63.1337 10.2472 62.3058 9.87112 61.4599C8.85613 59.1769 7.45973 57.1875 5.61372 55.4857C4.27195 54.2486 2.91093 53.0181 1.85589 51.4979C0.451622 49.4742 0.0183347 47.263 0.294276 44.8311C0.601016 42.1279 1.3898 39.4834 1.23973 36.7226C1.13753 34.8425 0.758353 33.005 0.417414 31.1679C-0.262912 27.5023 0.619269 24.3582 3.26336 21.7247C4.14493 20.8466 5.03093 19.9707 5.95494 19.1382C8.02401 17.274 9.20472 14.8378 10.3922 12.3975C10.7865 11.5869 11.2276 10.798 11.6714 10.0127C13.1591 7.38047 15.5033 5.9901 18.4041 5.45257C20.1726 5.12487 21.9511 4.85014 23.7269 4.56249C25.4395 4.28506 26.9786 3.56266 28.4882 2.75225C29.4767 2.22163 30.4754 1.70965 31.4765 1.20291C34.7667 -0.462601 38.044 -0.368477 41.3021 1.29841C42.1708 1.74287 43.0548 2.16425 43.8902 2.66569C46.2883 4.10525 48.9326 4.68835 51.6644 5.01457C53.1889 5.19659 54.6884 5.50551 56.1487 6.00051C58.6473 6.84747 60.2406 8.65781 61.4207 10.909C62.2473 12.4858 63.0313 14.0851 63.8677 15.6565C64.6456 17.118 65.7795 18.2985 66.9678 19.4294C68.2577 20.6571 69.5844 21.8474 70.6302 23.3089C72.0606 25.3081 72.5304 27.5019 72.2748 29.9468C71.9868 32.7007 71.1414 35.3852 71.32 38.1986C71.4392 40.0777 71.8154 41.9134 72.1469 43.7539C72.7838 47.2903 72.0105 50.381 69.4773 52.9758C68.6081 53.8663 67.7422 54.7644 66.8173 55.5952C65.0601 57.1737 63.7671 59.0654 62.795 61.2035C62.2196 62.469 61.5792 63.7024 60.8743 64.9043C59.3769 67.4577 57.105 68.8175 54.2614 69.4112C52.0696 69.8689 49.809 69.9149 47.6521 70.5659C46.8553 70.8063 46.0875 71.1127 45.2819 71.4785ZM2.80133 39.587C2.5381 41.3909 2.29079 43.1972 2.00758 44.9981C1.65697 47.2273 2.21828 49.1956 3.62156 50.9438C4.57234 52.1282 5.66992 53.1693 6.78562 54.192C8.30885 55.5883 9.60063 57.1572 10.5698 58.9967C11.4113 60.5939 12.1023 62.2671 13.034 63.818C13.9624 65.3632 15.1384 66.6371 16.8796 67.2621C18.1907 67.7328 19.5521 67.9937 20.937 68.1485C23.7616 68.4643 26.5218 68.9984 29.026 70.4605C30.0363 71.0502 31.0949 71.5573 32.1355 72.0945C34.7037 73.42 37.3041 73.5671 39.935 72.2843C40.7021 71.9104 41.465 71.5263 42.2192 71.1271C44.2035 70.0773 46.175 68.9934 48.429 68.6206C50.0843 68.3468 51.7426 68.0902 53.4033 67.852C56.1777 67.4542 58.2687 66.0709 59.599 63.5893C60.1753 62.5146 60.7668 61.4433 61.2618 60.3308C62.2908 58.0178 63.7624 56.0413 65.6009 54.3186C66.7047 53.2846 67.8054 52.2494 68.7757 51.08C70.0129 49.5889 70.6379 47.9244 70.5565 45.9626C70.4954 44.494 70.2298 43.0638 69.9979 41.6234C69.7349 39.9894 69.405 38.3575 69.5279 36.6902C69.6802 34.6247 70.1506 32.6042 70.4452 30.5584C70.8209 27.9492 70.4267 25.5586 68.5647 23.5447C67.6192 22.5223 66.6423 21.5326 65.6141 20.5957C63.6707 18.8249 62.2193 16.7134 61.139 14.3255C60.7072 13.371 60.1823 12.4591 59.7241 11.5161C58.3861 8.76227 56.0882 7.42181 53.1492 6.99954C51.6814 6.78864 50.2144 6.57016 48.7516 6.32676C46.3309 5.92393 44.1783 4.84699 42.0615 3.66413C40.467 2.77323 38.8611 1.89904 36.9827 1.70943C34.5518 1.46405 32.5171 2.51542 30.4986 3.62377C28.5077 4.71689 26.5259 5.83415 24.2523 6.23329C22.6001 6.52335 20.9384 6.76053 19.2789 7.00787C16.4251 7.43322 14.1882 8.75383 12.8524 11.3979C12.3686 12.3556 11.8489 13.2971 11.4065 14.2737C10.3043 16.7068 8.80617 18.8464 6.84127 20.6609C6.07078 21.3724 5.31624 22.1023 4.57541 22.8447C2.81228 24.6116 1.71225 26.6681 1.9227 29.2477C2.04137 30.7021 2.29879 32.1391 2.56877 33.5733C2.93535 35.5207 3.11384 37.4785 2.80133 39.587Z" fill="black"/>
<path d="M44.7465 69.3434C42.9373 70.2423 41.276 71.318 39.4117 71.9963C37.2752 72.7739 35.1648 72.7616 33.0392 71.9544C31.446 71.3496 29.9576 70.5338 28.4789 69.7093C26.3679 68.532 24.0706 68.0909 21.7189 67.8138C20.1462 67.6285 18.601 67.3307 17.1256 66.7365C15.0019 65.8812 13.6886 64.2054 12.6444 62.2701C12.2312 61.5044 11.8353 60.7266 11.482 59.9319C10.5286 57.7873 9.21681 55.9185 7.48268 54.3198C6.22226 53.1579 4.94373 52.0019 3.95263 50.5737C2.63348 48.6728 2.22644 46.5956 2.48566 44.3111C2.77381 41.7716 3.51479 39.2875 3.37381 36.694C3.2778 34.9279 2.92161 33.2017 2.60134 31.4761C1.96224 28.0326 2.79096 25.079 5.27478 22.6052C6.10291 21.7805 6.93522 20.9575 7.80323 20.1754C9.73914 18.4312 10.8472 16.154 11.9581 13.8707C11.9626 13.8616 11.9671 13.8524 11.9715 13.8433C12.342 13.0819 12.7563 12.3407 13.1732 11.6031C14.5707 9.13039 16.7727 7.8243 19.4978 7.31935C21.1592 7.01152 22.8298 6.75344 24.498 6.48322C26.1068 6.22261 27.5525 5.54399 28.9708 4.7827C29.8993 4.28423 30.8375 3.80329 31.778 3.32726C34.8687 1.7627 37.9473 1.85112 41.008 3.41698C41.824 3.83451 42.6544 4.23034 43.4392 4.70139C45.6919 6.05369 48.1759 6.60145 50.7423 6.90788C52.1743 7.07889 53.5829 7.36907 54.9546 7.83407C57.3019 8.6297 58.7985 10.3303 59.9072 12.4451C60.6837 13.9263 61.4201 15.4288 62.2059 16.9049C62.9365 18.2777 64.0018 19.3868 65.118 20.4491C66.3297 21.6023 67.5761 22.7205 68.5584 24.0933C69.9021 25.9714 70.3435 28.0321 70.1033 30.329C69.8329 32.9159 69.0388 35.4378 69.2063 38.0805C69.3184 39.8458 69.6717 41.5704 69.9832 43.2992C70.5815 46.6211 69.855 49.5246 67.4755 51.9621C66.6588 52.7985 65.8454 53.6423 64.9766 54.4227C63.3259 55.9056 62.1112 57.6826 61.1982 59.6911C60.6577 60.8799 60.0561 62.0385 59.3939 63.1676C57.9873 65.5663 55.853 66.8436 53.1818 67.4014C51.1227 67.8313 48.9993 67.8744 46.9729 68.486C46.2247 68.7119 45.5033 68.9997 44.7465 69.3434ZM4.84076 39.3848C4.59348 41.0793 4.36117 42.7762 4.09511 44.468C3.76576 46.562 4.29306 48.411 5.61127 50.0533C6.50443 51.1658 7.53549 52.1439 8.58355 53.1047C10.0145 54.4163 11.2279 55.8901 12.1383 57.618C12.9289 59.1185 13.578 60.6902 14.4532 62.1472C15.3253 63.5988 16.4301 64.7953 18.0657 65.3826C19.2974 65.8247 20.5763 66.0697 21.8771 66.2152C24.5307 66.5118 27.1236 67.0135 29.476 68.387C30.4249 68.941 31.4195 69.4175 32.397 69.922C34.8095 71.1671 37.2524 71.3052 39.7237 70.1004C40.4444 69.749 41.1609 69.3882 41.8696 69.0132C43.7334 68.0269 45.5856 67.0088 47.7029 66.6587C49.2578 66.4015 50.8157 66.1604 52.3757 65.9367C54.982 65.5629 56.9462 64.2636 58.196 61.9323C58.7371 60.9227 59.2929 59.9165 59.7578 58.8712C60.7245 56.6984 62.1068 54.8417 63.834 53.2236C64.8708 52.2521 65.9049 51.2796 66.8163 50.1811C67.9785 48.7805 68.5658 47.2169 68.4892 45.3738C68.4319 43.9945 68.1824 42.6508 67.9645 41.2977C67.7173 39.7627 67.4074 38.2299 67.5229 36.6636C67.6661 34.7234 68.1079 32.8252 68.3846 30.9035C68.7376 28.4524 68.3673 26.2068 66.6181 24.3149C65.73 23.3544 64.8123 22.4247 63.8463 21.5446C62.0208 19.881 60.6574 17.8976 59.6425 15.6545C59.2369 14.7579 58.7438 13.9012 58.3135 13.0153C57.0565 10.4284 54.8979 9.16922 52.137 8.77255C50.7581 8.57445 49.38 8.36921 48.006 8.14055C45.7319 7.76213 43.7097 6.75047 41.7212 5.63931C40.2235 4.8024 38.7149 3.9812 36.9503 3.80309C34.6668 3.57258 32.7555 4.56022 30.8592 5.6014C28.9891 6.62824 27.1274 7.6778 24.9916 8.05274C23.4395 8.32522 21.8786 8.54802 20.3197 8.78038C17.6387 9.17994 15.5374 10.4205 14.2826 12.9043C13.8281 13.804 13.3399 14.6884 12.9244 15.6059C11.8889 17.8915 10.4816 19.9014 8.63583 21.6059C7.91204 22.2743 7.20323 22.9598 6.50731 23.6572C4.85104 25.3172 3.81769 27.2489 4.0154 29.6722C4.12687 31.0384 4.36867 32.3883 4.6223 33.7356C4.96667 35.5649 5.13433 37.4042 4.84076 39.3848Z" fill="black"/>
<path fill-rule="evenodd" clip-rule="evenodd" d="M2.80129 39.587C2.53806 41.3909 2.29075 43.1972 2.00754 44.9981C1.65693 47.2273 2.21824 49.1956 3.62152 50.9437C4.5723 52.1282 5.66988 53.1693 6.78558 54.192C8.30881 55.5883 9.60059 57.1572 10.5697 58.9967C11.4113 60.5938 12.1022 62.2671 13.0339 63.818C13.9623 65.3632 15.1383 66.637 16.8796 67.2621C18.1906 67.7327 19.5521 67.9936 20.9369 68.1485C23.7616 68.4643 26.5218 68.9984 29.0259 70.4604C30.0362 71.0502 31.0949 71.5573 32.1355 72.0945C34.7037 73.42 37.3041 73.5671 39.9349 72.2843C40.7021 71.9103 41.465 71.5263 42.2192 71.1271C44.2035 70.0772 46.175 68.9934 48.429 68.6206C50.0842 68.3468 51.7426 68.0902 53.4033 67.852C56.1777 67.4541 58.2686 66.0709 59.599 63.5893C60.1753 62.5145 60.7668 61.4433 61.2617 60.3307C62.2908 58.0178 63.7624 56.0412 65.6009 54.3186C66.7047 53.2846 67.8053 52.2494 68.7756 51.08C70.0128 49.5889 70.6379 47.9244 70.5565 45.9625C70.4954 44.494 70.2298 43.0638 69.9979 41.6234C69.7348 39.9893 69.4049 38.3575 69.5278 36.6902C69.6802 34.6246 70.1505 32.6042 70.4451 30.5584C70.8209 27.9492 70.4267 25.5586 68.5647 23.5447C67.6191 22.5223 66.6423 21.5326 65.6141 20.5957C63.6707 18.8248 62.2193 16.7134 61.139 14.3254C60.7071 13.371 60.1823 12.4591 59.7241 11.5161C58.3861 8.76226 56.0882 7.42179 53.1491 6.99952C51.6814 6.78863 50.2143 6.57015 48.7515 6.32675C46.3309 5.92392 44.1783 4.84698 42.0614 3.66412C40.467 2.77321 38.861 1.89902 36.9827 1.70941C34.5518 1.46404 32.5171 2.5154 30.4985 3.62376C28.5077 4.71687 26.5259 5.83414 24.2523 6.23328C22.6001 6.52333 20.9384 6.76052 19.2789 7.00786C16.4251 7.4332 14.1881 8.75382 12.8524 11.3978C12.3685 12.3556 11.8488 13.2971 11.4065 14.2737C10.3042 16.7068 8.80613 18.8464 6.84123 20.6609C6.07074 21.3724 5.3162 22.1023 4.57537 22.8447C2.81224 24.6116 1.71221 26.6681 1.92267 29.2476C2.04133 30.7021 2.29875 32.1391 2.56874 33.5733C2.93531 35.5207 3.1138 37.4785 2.80129 39.587ZM39.4117 71.9963C41.276 71.318 42.9373 70.2423 44.7465 69.3433C45.5032 68.9997 46.2247 68.7119 46.9729 68.486C48.9992 67.8744 51.1227 67.8313 53.1818 67.4014C55.8529 66.8436 57.9872 65.5662 59.3939 63.1676C60.056 62.0385 60.6576 60.8799 61.1982 59.6911C62.1112 57.6826 63.3258 55.9056 64.9766 54.4227C65.8454 53.6423 66.6588 52.7985 67.4754 51.9621C69.8549 49.5246 70.5815 46.6211 69.9831 43.2992C69.6717 41.5703 69.3184 39.8458 69.2063 38.0805C69.0387 35.4378 69.8328 32.9159 70.1032 30.329C70.3435 28.0321 69.9021 25.9714 68.5584 24.0933C67.5761 22.7204 66.3296 21.6023 65.1179 20.4491C64.0017 19.3868 62.9365 18.2777 62.2058 16.9049C61.4201 15.4287 60.6837 13.9263 59.9072 12.445C58.7984 10.3303 57.3018 8.62969 54.9545 7.83406C53.5829 7.36906 52.1743 7.07887 50.7422 6.90787C48.1758 6.60144 45.6919 6.05367 43.4391 4.70137C42.6544 4.23032 41.824 3.83449 41.0079 3.41697C37.9473 1.85111 34.8686 1.76269 31.7779 3.32725C30.8375 3.80328 29.8993 4.28421 28.9707 4.78269C27.5525 5.54398 26.1068 6.2226 24.498 6.48321C22.8298 6.75343 21.1591 7.0115 19.4977 7.31934C16.7727 7.82429 14.5707 9.13037 13.1731 11.6031C12.7562 12.3407 12.3419 13.0819 11.9714 13.8433L11.9581 13.8707C10.8471 16.154 9.7391 18.4312 7.80319 20.1754C6.93519 20.9575 6.10288 21.7805 5.27474 22.6052C2.79092 25.079 1.9622 28.0326 2.6013 31.4761C2.92157 33.2017 3.27776 34.9279 3.37377 36.694C3.51475 39.2875 2.77377 41.7716 2.48562 44.3111C2.2264 46.5956 2.63344 48.6728 3.95259 50.5737C4.94369 52.0019 6.22222 53.1578 7.48264 54.3198C9.21677 55.9185 10.5285 57.7873 11.482 59.9319C11.8353 60.7266 12.2312 61.5044 12.6443 62.2701C13.6886 64.2054 15.0018 65.8812 17.1255 66.7365C18.6009 67.3307 20.1462 67.6284 21.7189 67.8138C24.0705 68.0909 26.3678 68.532 28.4788 69.7093C29.9576 70.5338 31.446 71.3496 33.0392 71.9544C35.1648 72.7616 37.2752 72.7739 39.4117 71.9963Z" fill="black"/>
</svg>
