<svg width="50" height="50" viewBox="0 0 50 50" fill="none" xmlns="http://www.w3.org/2000/svg">
<g clip-path="url(#clip0_19_61)">
<mask id="mask0_19_61" style="mask-type:luminance" maskUnits="userSpaceOnUse" x="0" y="0" width="50" height="50">
<path d="M0 0.0614014H49.9386V50H0V0.0614014Z" fill="white"/>
</mask>
<g mask="url(#mask0_19_61)">
<path d="M48.9977 22.8072L27.1933 1.00451C26.8949 0.705631 26.5404 0.468524 26.1502 0.30675C25.7601 0.144975 25.3418 0.0617065 24.9194 0.0617065C24.497 0.0617065 24.0788 0.144975 23.6886 0.30675C23.2984 0.468524 22.944 0.705631 22.6455 1.00451L18.1172 5.53277L23.8596 11.2752C24.5348 11.0459 25.2606 11.0101 25.955 11.1718C26.6494 11.3336 27.2847 11.6864 27.789 12.1904C28.296 12.6981 28.6501 13.3381 28.8108 14.0374C28.9716 14.7367 28.9326 15.4671 28.6982 16.1453L34.2325 21.6801C34.9105 21.4444 35.6413 21.4047 36.3409 21.5654C37.0405 21.7261 37.6807 22.0808 38.1879 22.5888C38.5433 22.944 38.8252 23.3659 39.0175 23.8301C39.2098 24.2944 39.3088 24.7919 39.3088 25.2945C39.3088 25.797 39.2098 26.2946 39.0175 26.7588C38.8252 27.2231 38.5433 27.6449 38.1879 28.0002C37.4699 28.7178 36.4963 29.121 35.4811 29.121C34.4659 29.121 33.4923 28.7178 32.7743 28.0002C32.2399 27.4661 31.8756 26.7857 31.7274 26.0448C31.5792 25.3039 31.6538 24.5357 31.9417 23.8371L26.7787 18.6757V32.261C27.3236 32.5302 27.7966 32.9254 28.1584 33.4138C28.5202 33.9022 28.7605 34.4697 28.8593 35.0695C28.9581 35.6692 28.9126 36.2838 28.7266 36.8625C28.5406 37.4411 28.2193 37.9671 27.7895 38.3969C27.4342 38.7523 27.0124 39.0342 26.5482 39.2265C26.0839 39.4188 25.5863 39.5178 25.0838 39.5178C24.5813 39.5178 24.0837 39.4188 23.6195 39.2265C23.1552 39.0342 22.7334 38.7523 22.3781 38.3969C22.0227 38.0416 21.7407 37.6197 21.5483 37.1554C21.356 36.6912 21.257 36.1935 21.257 35.6909C21.257 35.1884 21.356 34.6907 21.5483 34.2264C21.7407 33.7621 22.0227 33.3403 22.3781 32.9849C22.7366 32.6256 23.163 32.3413 23.6325 32.1485V18.4382C23.1629 18.2465 22.7365 17.9629 22.3781 17.604C21.8415 17.0666 21.4766 16.3819 21.3299 15.6368C21.1832 14.8917 21.2613 14.1198 21.5542 13.4192L15.8922 7.75723L0.942247 22.7051C0.643449 23.0037 0.406422 23.3584 0.244706 23.7487C0.0829909 24.139 -0.000244141 24.5573 -0.000244141 24.9798C-0.000244141 25.4023 0.0829909 25.8206 0.244706 26.2109C0.406422 26.6012 0.643449 26.9558 0.942247 27.2545L22.7471 49.0599C23.3504 49.6626 24.1683 50.0012 25.0211 50.0012C25.8738 50.0012 26.6917 49.6626 27.295 49.0599L48.9977 27.3567C49.6002 26.753 49.9386 25.9349 49.9386 25.082C49.9386 24.229 49.6002 23.4109 48.9977 22.8072Z" fill="white"/>
</g>
</g>
<defs>
<clipPath id="clip0_19_61">
<rect width="50" height="50" fill="white"/>
</clipPath>
</defs>
</svg>
